<svg xmlns="http://www.w3.org/2000/svg" width="132" height="132" viewBox="0 0 512 512" data-svgdocument="" id="_LL1-HB56QQGsjMAnF-NgR" class="fl-svgdocument" x="0" y="0" overflow="hidden" style="overflow: visible;"><path text="pelis-pro +" text-anchor="start" font-size="100" letter-spacing="0" side="left" offset="0" dx="0" dy="0" space="preserve" href="" font-family="Baloo Bhai 2" font-scale="contain" transform="matrix(0.7494768867274676, 0, 0, 0.8692783940804565, 169.78884894579448, 273.34248873094833)" x="0" y="0" fill="#ffffff" data-fl-textpath="" id="_a4W_nCQqzGiI9hLwuCm5N" font-weight="400" font-style="normal" data-uid="o_f77eknehj_4" d="M 27.2 1.3L 27.2 1.3Q 23.7 1.3  20.6 0.5Q 17.5-0.3  15.5-1.4L 15.5-1.4L 15.5 18Q 15 18.2  14 18.45Q 13 18.7  11.8 18.7L 11.8 18.7Q 7.5 18.7  7.5 15L 7.5 15L 7.5-37.8Q 7.5-39.8  8.2-41Q 8.9-42.2  11.1-43.5L 11.1-43.5Q 13.8-45  17.55-46.25Q 21.3-47.5  26.1-47.5L 26.1-47.5Q 31-47.5  35.35-46.1Q 39.7-44.7  42.85-41.75Q 46-38.8  47.85-34.2Q 49.7-29.6  49.7-23.2L 49.7-23.2Q 49.7-17  48.05-12.4Q 46.4-7.8  43.4-4.75Q 40.4-1.7  36.25-0.2Q 32.1 1.3  27.2 1.3ZM 26.1-5.3L 26.1-5.3Q 33.1-5.3  37.35-9.55Q 41.6-13.8  41.6-23.2L 41.6-23.2Q 41.6-28.1  40.35-31.5Q 39.1-34.9  36.95-37Q 34.8-39.1  32-40Q 29.2-40.9  26.1-40.9L 26.1-40.9Q 22.5-40.9  20-40Q 17.5-39.1  15.5-38L 15.5-38L 15.5-8.5Q 17.4-7.1  20-6.2Q 22.6-5.3  26.1-5.3ZM 98.6-22.7L 67.8-18.4Q 70.5-5.3  85-5.3L 85-5.3Q 89.2-5.3  92.6-6.7Q 96-8.1  98-9.7L 98-9.7Q 100.4-8.3  100.4-5.9L 100.4-5.9Q 100.4-4.5  99.15-3.2Q 97.9-1.9  95.75-0.9Q 93.6 0.1  90.75 0.7Q 87.9 1.3  84.6 1.3L 84.6 1.3Q 73 1.3  66.25-5Q 59.5-11.3  59.5-23.4L 59.5-23.4Q 59.5-29.1  61.15-33.55Q 62.8-38  65.75-41.1Q 68.7-44.2  72.8-45.85Q 76.9-47.5  81.7-47.5L 81.7-47.5Q 86.2-47.5  90-46Q 93.8-44.5  96.55-41.75Q 99.3-39  100.85-35.25Q 102.4-31.5  102.4-27L 102.4-27Q 102.4-24.8  101.4-23.85Q 100.4-22.9  98.6-22.7L 98.6-22.7ZM 81.6-41L 81.6-41Q 75.5-41  71.5-36.75Q 67.5-32.5  67.3-24.6L 67.3-24.6L 94.8-28.4Q 94.3-33.9  90.95-37.45Q 87.6-41  81.6-41ZM 122.8-0.2L 122.8-0.2Q 122.3 0  121.3 0.25Q 120.3 0.5  119.1 0.5L 119.1 0.5Q 114.8 0.5  114.8-3.1L 114.8-3.1L 114.8-64.8Q 115.3-65  116.35-65.25Q 117.4-65.5  118.5-65.5L 118.5-65.5Q 122.8-65.5  122.8-61.9L 122.8-61.9L 122.8-0.2ZM 147.1-43L 147.1-0.2Q 146.6 0  145.6 0.25Q 144.6 0.5  143.4 0.5L 143.4 0.5Q 139.1 0.5  139.1-3.1L 139.1-3.1L 139.1-46Q 139.6-46.2  140.65-46.45Q 141.7-46.7  142.9-46.7L 142.9-46.7Q 147.1-46.7  147.1-43L 147.1-43ZM 137.9-60.8L 137.9-60.8Q 137.9-62.9  139.35-64.35Q 140.8-65.8  143.1-65.8L 143.1-65.8Q 145.4-65.8  146.8-64.35Q 148.2-62.9  148.2-60.8L 148.2-60.8Q 148.2-58.7  146.8-57.25Q 145.4-55.8  143.1-55.8L 143.1-55.8Q 140.8-55.8  139.35-57.25Q 137.9-58.7  137.9-60.8ZM 195.3-12.3L 195.3-12.3Q 195.3-5.9  190.6-2.3Q 185.9 1.3  177 1.3L 177 1.3Q 173.2 1.3  170 0.65Q 166.8 0  164.55-1.05Q 162.3-2.1  161.05-3.45Q 159.8-4.8  159.8-6.2L 159.8-6.2Q 159.8-7.4  160.45-8.5Q 161.1-9.6  162.4-10.4L 162.4-10.4Q 165.1-8.4  168.7-6.85Q 172.3-5.3  176.9-5.3L 176.9-5.3Q 187.3-5.3  187.3-12.3L 187.3-12.3Q 187.3-18  180.4-19.7L 180.4-19.7L 172.1-21.9Q 166-23.5  163.2-26.55Q 160.4-29.6  160.4-34.4L 160.4-34.4Q 160.4-37  161.45-39.4Q 162.5-41.8  164.7-43.6Q 166.9-45.4  170.15-46.45Q 173.4-47.5  177.8-47.5L 177.8-47.5Q 184.8-47.5  189.1-45.45Q 193.4-43.4  193.4-40.7L 193.4-40.7Q 193.4-39.4  192.75-38.4Q 192.1-37.4  191-36.9L 191-36.9Q 189.2-38.1  185.9-39.5Q 182.6-40.9  178.1-40.9L 178.1-40.9Q 173.6-40.9  170.95-39.2Q 168.3-37.5  168.3-34.4L 168.3-34.4Q 168.3-32.1  169.8-30.5Q 171.3-28.9  174.8-28.1L 174.8-28.1L 181.7-26.4Q 188.5-24.7  191.9-21.35Q 195.3-18  195.3-12.3ZM 229.9-22.8L 206-22.8Q 205.7-23.5  205.5-24.25Q 205.3-25  205.3-26L 205.3-26Q 205.3-29.4  208.8-29.4L 208.8-29.4L 232.7-29.4Q 232.9-28.8  233.15-28Q 233.4-27.2  233.4-26.3L 233.4-26.3Q 233.4-22.8  229.9-22.8L 229.9-22.8ZM 266 1.3L 266 1.3Q 262.5 1.3  259.4 0.5Q 256.3-0.3  254.3-1.4L 254.3-1.4L 254.3 18Q 253.8 18.2  252.8 18.45Q 251.8 18.7  250.6 18.7L 250.6 18.7Q 246.3 18.7  246.3 15L 246.3 15L 246.3-37.8Q 246.3-39.8  247-41Q 247.7-42.2  249.9-43.5L 249.9-43.5Q 252.6-45  256.35-46.25Q 260.1-47.5  264.9-47.5L 264.9-47.5Q 269.8-47.5  274.15-46.1Q 278.5-44.7  281.65-41.75Q 284.8-38.8  286.65-34.2Q 288.5-29.6  288.5-23.2L 288.5-23.2Q 288.5-17  286.85-12.4Q 285.2-7.8  282.2-4.75Q 279.2-1.7  275.05-0.2Q 270.9 1.3  266 1.3ZM 264.9-5.3L 264.9-5.3Q 271.9-5.3  276.15-9.55Q 280.4-13.8  280.4-23.2L 280.4-23.2Q 280.4-28.1  279.15-31.5Q 277.9-34.9  275.75-37Q 273.6-39.1  270.8-40Q 268-40.9  264.9-40.9L 264.9-40.9Q 261.3-40.9  258.8-40Q 256.3-39.1  254.3-38L 254.3-38L 254.3-8.5Q 256.2-7.1  258.8-6.2Q 261.4-5.3  264.9-5.3ZM 308.9-37.6L 308.9-0.2Q 308.4 0  307.4 0.25Q 306.4 0.5  305.2 0.5L 305.2 0.5Q 300.9 0.5  300.9-3.1L 300.9-3.1L 300.9-37Q 300.9-39.3  301.75-40.65Q 302.6-42  304.6-43.3L 304.6-43.3Q 307.2-45  311.65-46.25Q 316.1-47.5  321.7-47.5L 321.7-47.5Q 329.7-47.5  329.7-43.5L 329.7-43.5Q 329.7-42.5  329.4-41.65Q 329.1-40.8  328.6-40.2L 328.6-40.2Q 327.6-40.4  326-40.6Q 324.4-40.8  322.8-40.8L 322.8-40.8Q 318.2-40.8  314.7-39.85Q 311.2-38.9  308.9-37.6L 308.9-37.6ZM 382-23.1L 382-23.1Q 382-17.5  380.4-13Q 378.8-8.5  375.85-5.3Q 372.9-2.1  368.7-0.4Q 364.5 1.3  359.3 1.3L 359.3 1.3Q 354.1 1.3  349.9-0.4Q 345.7-2.1  342.7-5.3Q 339.7-8.5  338.1-13Q 336.5-17.5  336.5-23.1L 336.5-23.1Q 336.5-28.7  338.15-33.2Q 339.8-37.7  342.8-40.9Q 345.8-44.1  350-45.8Q 354.2-47.5  359.3-47.5L 359.3-47.5Q 364.4-47.5  368.6-45.8Q 372.8-44.1  375.75-40.9Q 378.7-37.7  380.35-33.2Q 382-28.7  382-23.1ZM 359.3-40.9L 359.3-40.9Q 352.5-40.9  348.6-36.2Q 344.7-31.5  344.7-23.1L 344.7-23.1Q 344.7-14.6  348.55-9.95Q 352.4-5.3  359.3-5.3L 359.3-5.3Q 366.2-5.3  370-10Q 373.8-14.7  373.8-23.1L 373.8-23.1Q 373.8-31.5  369.95-36.2Q 366.1-40.9  359.3-40.9ZM 438.1-48.8L 438.1-33.2L 455.9-33.2Q 456.1-32.6  456.35-31.8Q 456.6-31  456.6-30.1L 456.6-30.1Q 456.6-26.6  453.1-26.6L 453.1-26.6L 438.1-26.6L 438.1-7.3Q 437.3-7  436.55-6.8Q 435.8-6.6  434.7-6.6L 434.7-6.6Q 432.7-6.6  431.75-7.5Q 430.8-8.4  430.8-10.6L 430.8-10.6L 430.8-26.6L 412.7-26.6Q 412.4-27.3  412.2-28.05Q 412-28.8  412-29.8L 412-29.8Q 412-33.2  415.5-33.2L 415.5-33.2L 430.8-33.2L 430.8-52.1Q 431.6-52.4  432.45-52.6Q 433.3-52.8  434.5-52.8L 434.5-52.8Q 436.4-52.8  437.25-51.9Q 438.1-51  438.1-48.8L 438.1-48.8Z" data-darkreader-inline-fill="" style="--darkreader-inline-fill: #181a1b;"></path><g id="_o_yMnIL_WDXJ41iAcGeAm" transform="matrix(0.4595497798616509, 0, 0, 0.4595497798616509, -0.8382695512761984, 173.75406916558532)" data-uid="o_f77eknehj_6" fill="rgba(0, 146, 93, 1)" data-darkreader-inline-fill="" style="--darkreader-inline-fill: #00754a;"><path id="_Vi8VTbo6h0zuIxeSDTpUQ" d="M-237.4 381.5c-4 2.2-6.9 5.3-8.8 7.8c-0.7 0.9-2.2 0.3-1.9-0.9c1.4-6.9 6.3-8.7 10.1-9    C-236.8 379.4-236.4 380.9-237.4 381.5z M-172.4 386.6v28.9c0 9.4-7.6 17.1-17 17.3v1.3c0 1.5-1.2 2.7-2.7 2.7h-1.7    c-1.5 0-2.7-1.2-2.7-2.7v-1.3h-38.3v1.9c0 1.5-1.2 2.7-2.7 2.7h-1.7c-1.5 0-2.7-1.2-2.7-2.7v-2c-8.7-0.9-15.6-8.3-15.6-17.2v-28.9    c0-9.5 7.8-17.3 17.3-17.3h11.4c2-1.4 4.2-2.4 6.5-3l-5.9-5.9c-0.9-0.9-0.9-2.4 0-3.3c0.9-0.9 2.4-0.9 3.3 0l7.8 7.8l7.9-7.8    c0.9-0.9 2.4-0.9 3.3 0c0.9 0.9 0.9 2.4 0 3.3l-5.9 5.9c2.4 0.6 4.6 1.7 6.5 3h15.6C-180.2 369.3-172.4 377.1-172.4 386.6z     M-187.2 388.5c0-6.8-5.6-12.4-12.4-12.4h-38.9c-6.8 0-12.4 5.6-12.4 12.4v25.3c0 6.8 5.6 12.4 12.4 12.4h38.9    c6.8 0 12.4-5.6 12.4-12.4V388.5z M-177.2 408.3c0-1.4-1.2-2.6-2.6-2.6c-1.4 0-2.6 1.2-2.6 2.6c0 1.4 1.2 2.6 2.6 2.6    C-178.4 410.9-177.2 409.8-177.2 408.3z M-177.2 401.1c0-1.4-1.2-2.6-2.6-2.6c-1.4 0-2.6 1.2-2.6 2.6c0 1.4 1.2 2.6 2.6 2.6    C-178.4 403.8-177.2 402.6-177.2 401.1z M-177.2 393.9c0-1.4-1.2-2.6-2.6-2.6c-1.4 0-2.6 1.2-2.6 2.6c0 1.4 1.2 2.6 2.6 2.6    C-178.4 396.5-177.2 395.3-177.2 393.9z" fill="rgba(0, 146, 93, 1)" transform="matrix(3.11307692527771, 0, 0, 3.11307692527771, 875.656005859375, -1109.5784912109375)" data-uid="o_f77eknehj_7" data-darkreader-inline-fill="" style="--darkreader-inline-fill: #00754a;"></path><path id="_-md0mUzlLIptHamJQfaab" d="M5.9 9.777C5.9 4.377 10.276 0 15.676 0c1.677 0 2.74 0.438 4.61 1.182l68.577 39.9c3.189 1.89 4.666 4.927 5.236 8.428  v0.982c-0.57 3.499-2.047 6.537-5.236 8.428L20.287 98.819c-1.871 0.745-2.934 1.181-4.61 1.181c-5.4 0-9.776-4.377-9.776-9.777  V9.777z" fill="rgba(0, 146, 93, 1)" transform="matrix(0.747776985168457, 0, 0, 0.747776985168457, 165.1116943359375, 96.3448486328125)" data-uid="o_f77eknehj_8" data-darkreader-inline-fill="" style="--darkreader-inline-fill: #66ffc7;"></path></g></svg>